<mxfile host="Electron" modified="2024-05-05T08:19:04.866Z" agent="Mozilla/5.0 (Windows NT 10.0; Win64; x64) AppleWebKit/537.36 (KHTML, like Gecko) draw.io/24.2.5 Chrome/120.0.6099.109 Electron/28.1.0 Safari/537.36" etag="GO_rfiK3Ah19pEQjJ2R5" version="24.2.5" type="device">
  <diagram id="C5RBs43oDa-KdzZeNtuy" name="Page-1">
    <mxGraphModel dx="1596" dy="826" grid="1" gridSize="10" guides="1" tooltips="1" connect="1" arrows="1" fold="1" page="1" pageScale="1" pageWidth="827" pageHeight="1169" math="0" shadow="0">
      <root>
        <mxCell id="WIyWlLk6GJQsqaUBKTNV-0" />
        <mxCell id="WIyWlLk6GJQsqaUBKTNV-1" parent="WIyWlLk6GJQsqaUBKTNV-0" />
        <mxCell id="AHataomAO11KRiq0uJDD-5" value="Project" style="swimlane;fontStyle=0;childLayout=stackLayout;horizontal=1;startSize=26;fillColor=none;horizontalStack=0;resizeParent=1;resizeParentMax=0;resizeLast=0;collapsible=1;marginBottom=0;" parent="WIyWlLk6GJQsqaUBKTNV-1" vertex="1">
          <mxGeometry x="400" y="40" width="310" height="268" as="geometry" />
        </mxCell>
        <mxCell id="AHataomAO11KRiq0uJDD-7" value="String name" style="text;strokeColor=none;fillColor=none;align=left;verticalAlign=top;spacingLeft=4;spacingRight=4;overflow=hidden;rotatable=0;points=[[0,0.5],[1,0.5]];portConstraint=eastwest;" parent="AHataomAO11KRiq0uJDD-5" vertex="1">
          <mxGeometry y="26" width="310" height="26" as="geometry" />
        </mxCell>
        <mxCell id="-zn2SSIJuOPCWb8_9G0l-78" value="int projectID" style="text;strokeColor=none;fillColor=none;align=left;verticalAlign=top;spacingLeft=4;spacingRight=4;overflow=hidden;rotatable=0;points=[[0,0.5],[1,0.5]];portConstraint=eastwest;" parent="AHataomAO11KRiq0uJDD-5" vertex="1">
          <mxGeometry y="52" width="310" height="26" as="geometry" />
        </mxCell>
        <mxCell id="-zn2SSIJuOPCWb8_9G0l-77" value="Date endWeek" style="text;strokeColor=none;fillColor=none;align=left;verticalAlign=top;spacingLeft=4;spacingRight=4;overflow=hidden;rotatable=0;points=[[0,0.5],[1,0.5]];portConstraint=eastwest;" parent="AHataomAO11KRiq0uJDD-5" vertex="1">
          <mxGeometry y="78" width="310" height="26" as="geometry" />
        </mxCell>
        <mxCell id="AHataomAO11KRiq0uJDD-6" value="Date startWeek" style="text;strokeColor=none;fillColor=none;align=left;verticalAlign=top;spacingLeft=4;spacingRight=4;overflow=hidden;rotatable=0;points=[[0,0.5],[1,0.5]];portConstraint=eastwest;" parent="AHataomAO11KRiq0uJDD-5" vertex="1">
          <mxGeometry y="104" width="310" height="26" as="geometry" />
        </mxCell>
        <mxCell id="bJ5cwEk--f8X3TUvc_xh-0" value="String projectLeaderID" style="text;strokeColor=none;fillColor=none;align=left;verticalAlign=top;spacingLeft=4;spacingRight=4;overflow=hidden;rotatable=0;points=[[0,0.5],[1,0.5]];portConstraint=eastwest;" parent="AHataomAO11KRiq0uJDD-5" vertex="1">
          <mxGeometry y="130" width="310" height="26" as="geometry" />
        </mxCell>
        <mxCell id="AHataomAO11KRiq0uJDD-62" value="" style="line;strokeWidth=1;fillColor=none;align=left;verticalAlign=middle;spacingTop=-1;spacingLeft=3;spacingRight=3;rotatable=0;labelPosition=right;points=[];portConstraint=eastwest;strokeColor=inherit;" parent="AHataomAO11KRiq0uJDD-5" vertex="1">
          <mxGeometry y="156" width="310" height="8" as="geometry" />
        </mxCell>
        <mxCell id="AHataomAO11KRiq0uJDD-63" value="createReport(): Report" style="text;strokeColor=none;fillColor=none;align=left;verticalAlign=top;spacingLeft=4;spacingRight=4;overflow=hidden;rotatable=0;points=[[0,0.5],[1,0.5]];portConstraint=eastwest;" parent="AHataomAO11KRiq0uJDD-5" vertex="1">
          <mxGeometry y="164" width="310" height="26" as="geometry" />
        </mxCell>
        <mxCell id="-zn2SSIJuOPCWb8_9G0l-36" value="addActivity(Activity): void" style="text;strokeColor=none;fillColor=none;align=left;verticalAlign=top;spacingLeft=4;spacingRight=4;overflow=hidden;rotatable=0;points=[[0,0.5],[1,0.5]];portConstraint=eastwest;" parent="AHataomAO11KRiq0uJDD-5" vertex="1">
          <mxGeometry y="190" width="310" height="26" as="geometry" />
        </mxCell>
        <mxCell id="-zn2SSIJuOPCWb8_9G0l-10" value="deleteActivity(Activity): void" style="text;strokeColor=none;fillColor=none;align=left;verticalAlign=top;spacingLeft=4;spacingRight=4;overflow=hidden;rotatable=0;points=[[0,0.5],[1,0.5]];portConstraint=eastwest;" parent="AHataomAO11KRiq0uJDD-5" vertex="1">
          <mxGeometry y="216" width="310" height="26" as="geometry" />
        </mxCell>
        <mxCell id="-zn2SSIJuOPCWb8_9G0l-6" value="assignProjectLeader(String): void" style="text;strokeColor=none;fillColor=none;align=left;verticalAlign=top;spacingLeft=4;spacingRight=4;overflow=hidden;rotatable=0;points=[[0,0.5],[1,0.5]];portConstraint=eastwest;" parent="AHataomAO11KRiq0uJDD-5" vertex="1">
          <mxGeometry y="242" width="310" height="26" as="geometry" />
        </mxCell>
        <mxCell id="AHataomAO11KRiq0uJDD-15" value="&lt;&lt;Abstract&gt;&gt;&#xa;Activity" style="swimlane;fontStyle=0;childLayout=stackLayout;horizontal=1;startSize=26;fillColor=none;horizontalStack=0;resizeParent=1;resizeParentMax=0;resizeLast=0;collapsible=1;marginBottom=0;" parent="WIyWlLk6GJQsqaUBKTNV-1" vertex="1">
          <mxGeometry x="430" y="400" width="250" height="112" as="geometry">
            <mxRectangle x="240" y="218" width="80" height="30" as="alternateBounds" />
          </mxGeometry>
        </mxCell>
        <mxCell id="-zn2SSIJuOPCWb8_9G0l-49" value="String name" style="text;strokeColor=none;fillColor=none;align=left;verticalAlign=top;spacingLeft=4;spacingRight=4;overflow=hidden;rotatable=0;points=[[0,0.5],[1,0.5]];portConstraint=eastwest;" parent="AHataomAO11KRiq0uJDD-15" vertex="1">
          <mxGeometry y="26" width="250" height="26" as="geometry" />
        </mxCell>
        <mxCell id="-zn2SSIJuOPCWb8_9G0l-13" value="" style="line;strokeWidth=1;fillColor=none;align=left;verticalAlign=middle;spacingTop=-1;spacingLeft=3;spacingRight=3;rotatable=0;labelPosition=right;points=[];portConstraint=eastwest;strokeColor=inherit;" parent="AHataomAO11KRiq0uJDD-15" vertex="1">
          <mxGeometry y="52" width="250" height="8" as="geometry" />
        </mxCell>
        <mxCell id="-zn2SSIJuOPCWb8_9G0l-12" value="assignEmployee(String): void" style="text;strokeColor=none;fillColor=none;align=left;verticalAlign=top;spacingLeft=4;spacingRight=4;overflow=hidden;rotatable=0;points=[[0,0.5],[1,0.5]];portConstraint=eastwest;" parent="AHataomAO11KRiq0uJDD-15" vertex="1">
          <mxGeometry y="60" width="250" height="26" as="geometry" />
        </mxCell>
        <mxCell id="-zn2SSIJuOPCWb8_9G0l-14" value="removeEmployee(String): void" style="text;strokeColor=none;fillColor=none;align=left;verticalAlign=top;spacingLeft=4;spacingRight=4;overflow=hidden;rotatable=0;points=[[0,0.5],[1,0.5]];portConstraint=eastwest;" parent="AHataomAO11KRiq0uJDD-15" vertex="1">
          <mxGeometry y="86" width="250" height="26" as="geometry" />
        </mxCell>
        <mxCell id="AHataomAO11KRiq0uJDD-9" value="Employee" style="swimlane;fontStyle=0;childLayout=stackLayout;horizontal=1;startSize=26;fillColor=none;horizontalStack=0;resizeParent=1;resizeParentMax=0;resizeLast=0;collapsible=1;marginBottom=0;" parent="WIyWlLk6GJQsqaUBKTNV-1" vertex="1">
          <mxGeometry x="800" y="200" width="215" height="164" as="geometry" />
        </mxCell>
        <mxCell id="AHataomAO11KRiq0uJDD-54" value="String ID" style="text;strokeColor=none;fillColor=none;align=left;verticalAlign=top;spacingLeft=4;spacingRight=4;overflow=hidden;rotatable=0;points=[[0,0.5],[1,0.5]];portConstraint=eastwest;" parent="AHataomAO11KRiq0uJDD-9" vertex="1">
          <mxGeometry y="26" width="215" height="26" as="geometry" />
        </mxCell>
        <mxCell id="-zn2SSIJuOPCWb8_9G0l-35" value="" style="line;strokeWidth=1;fillColor=none;align=left;verticalAlign=middle;spacingTop=-1;spacingLeft=3;spacingRight=3;rotatable=0;labelPosition=right;points=[];portConstraint=eastwest;strokeColor=inherit;" parent="AHataomAO11KRiq0uJDD-9" vertex="1">
          <mxGeometry y="52" width="215" height="8" as="geometry" />
        </mxCell>
        <mxCell id="-zn2SSIJuOPCWb8_9G0l-1" value="addActivity(Activity): void" style="text;strokeColor=none;fillColor=none;align=left;verticalAlign=top;spacingLeft=4;spacingRight=4;overflow=hidden;rotatable=0;points=[[0,0.5],[1,0.5]];portConstraint=eastwest;" parent="AHataomAO11KRiq0uJDD-9" vertex="1">
          <mxGeometry y="60" width="215" height="26" as="geometry" />
        </mxCell>
        <mxCell id="-zn2SSIJuOPCWb8_9G0l-37" value="removeActivity(Activity): void" style="text;strokeColor=none;fillColor=none;align=left;verticalAlign=top;spacingLeft=4;spacingRight=4;overflow=hidden;rotatable=0;points=[[0,0.5],[1,0.5]];portConstraint=eastwest;" parent="AHataomAO11KRiq0uJDD-9" vertex="1">
          <mxGeometry y="86" width="215" height="26" as="geometry" />
        </mxCell>
        <mxCell id="-zn2SSIJuOPCWb8_9G0l-46" value="createTimeBlock(Activity, Date, Date): void" style="text;strokeColor=none;fillColor=none;align=left;verticalAlign=top;spacingLeft=4;spacingRight=4;overflow=hidden;rotatable=0;points=[[0,0.5],[1,0.5]];portConstraint=eastwest;" parent="AHataomAO11KRiq0uJDD-9" vertex="1">
          <mxGeometry y="112" width="215" height="26" as="geometry" />
        </mxCell>
        <mxCell id="-zn2SSIJuOPCWb8_9G0l-47" value="deleteTimeBlock(TimeBlock): void" style="text;strokeColor=none;fillColor=none;align=left;verticalAlign=top;spacingLeft=4;spacingRight=4;overflow=hidden;rotatable=0;points=[[0,0.5],[1,0.5]];portConstraint=eastwest;" parent="AHataomAO11KRiq0uJDD-9" vertex="1">
          <mxGeometry y="138" width="215" height="26" as="geometry" />
        </mxCell>
        <mxCell id="AHataomAO11KRiq0uJDD-25" value="0..*" style="endArrow=open;html=1;endSize=12;startArrow=diamondThin;startSize=14;startFill=0;align=left;verticalAlign=bottom;rounded=0;elbow=vertical;" parent="WIyWlLk6GJQsqaUBKTNV-1" source="AHataomAO11KRiq0uJDD-15" target="AHataomAO11KRiq0uJDD-9" edge="1">
          <mxGeometry x="-0.806" y="-8" relative="1" as="geometry">
            <mxPoint x="780" y="334.35000000000014" as="sourcePoint" />
            <mxPoint x="690" y="334.35000000000014" as="targetPoint" />
            <mxPoint as="offset" />
          </mxGeometry>
        </mxCell>
        <mxCell id="AHataomAO11KRiq0uJDD-26" value="0..*" style="edgeLabel;html=1;align=center;verticalAlign=middle;resizable=0;points=[];" parent="AHataomAO11KRiq0uJDD-25" vertex="1" connectable="0">
          <mxGeometry x="0.7237" relative="1" as="geometry">
            <mxPoint y="14" as="offset" />
          </mxGeometry>
        </mxCell>
        <mxCell id="AHataomAO11KRiq0uJDD-57" value="System" style="swimlane;fontStyle=0;childLayout=stackLayout;horizontal=1;startSize=26;fillColor=none;horizontalStack=0;resizeParent=1;resizeParentMax=0;resizeLast=0;collapsible=1;marginBottom=0;" parent="WIyWlLk6GJQsqaUBKTNV-1" vertex="1">
          <mxGeometry x="800" y="40" width="310" height="76" as="geometry" />
        </mxCell>
        <mxCell id="-zn2SSIJuOPCWb8_9G0l-9" value="createNewProject(Project): void" style="text;strokeColor=none;fillColor=none;align=left;verticalAlign=top;spacingLeft=4;spacingRight=4;overflow=hidden;rotatable=0;points=[[0,0.5],[1,0.5]];portConstraint=eastwest;" parent="AHataomAO11KRiq0uJDD-57" vertex="1">
          <mxGeometry y="26" width="310" height="24" as="geometry" />
        </mxCell>
        <mxCell id="-zn2SSIJuOPCWb8_9G0l-5" value="findAvailableEmployees(Date, Date): List&lt;Employee&gt;" style="text;strokeColor=none;fillColor=none;align=left;verticalAlign=top;spacingLeft=4;spacingRight=4;overflow=hidden;rotatable=0;points=[[0,0.5],[1,0.5]];portConstraint=eastwest;" parent="AHataomAO11KRiq0uJDD-57" vertex="1">
          <mxGeometry y="50" width="310" height="26" as="geometry" />
        </mxCell>
        <mxCell id="AHataomAO11KRiq0uJDD-60" value="" style="endArrow=open;html=1;endSize=12;startArrow=diamondThin;startSize=14;startFill=1;align=left;verticalAlign=bottom;rounded=0;elbow=vertical;entryX=0;entryY=0.5;entryDx=0;entryDy=0;exitX=1;exitY=0.5;exitDx=0;exitDy=0;" parent="WIyWlLk6GJQsqaUBKTNV-1" source="AHataomAO11KRiq0uJDD-7" target="-zn2SSIJuOPCWb8_9G0l-9" edge="1">
          <mxGeometry x="-0.8556" y="-29" relative="1" as="geometry">
            <mxPoint x="730" y="190.8235294117647" as="sourcePoint" />
            <mxPoint x="750" y="90" as="targetPoint" />
            <mxPoint as="offset" />
          </mxGeometry>
        </mxCell>
        <mxCell id="-zn2SSIJuOPCWb8_9G0l-4" value="0..*" style="edgeLabel;html=1;align=center;verticalAlign=middle;resizable=0;points=[];" parent="AHataomAO11KRiq0uJDD-60" vertex="1" connectable="0">
          <mxGeometry x="0.7605" relative="1" as="geometry">
            <mxPoint x="-69" y="12" as="offset" />
          </mxGeometry>
        </mxCell>
        <mxCell id="-zn2SSIJuOPCWb8_9G0l-31" value="1" style="edgeLabel;html=1;align=center;verticalAlign=middle;resizable=0;points=[];rotation=0;" parent="AHataomAO11KRiq0uJDD-60" vertex="1" connectable="0">
          <mxGeometry x="0.8097" y="-2" relative="1" as="geometry">
            <mxPoint x="-1" y="11" as="offset" />
          </mxGeometry>
        </mxCell>
        <mxCell id="AHataomAO11KRiq0uJDD-64" value="0..*" style="endArrow=open;html=1;endSize=12;startArrow=diamondThin;startSize=14;startFill=0;align=left;verticalAlign=bottom;rounded=0;elbow=vertical;exitX=0.5;exitY=0;exitDx=0;exitDy=0;entryX=0.435;entryY=1.077;entryDx=0;entryDy=0;entryPerimeter=0;" parent="WIyWlLk6GJQsqaUBKTNV-1" source="AHataomAO11KRiq0uJDD-15" target="-zn2SSIJuOPCWb8_9G0l-6" edge="1">
          <mxGeometry x="-0.6263" y="3" relative="1" as="geometry">
            <mxPoint x="798.5" y="376.9819999999995" as="sourcePoint" />
            <mxPoint x="650" y="386" as="targetPoint" />
            <mxPoint as="offset" />
          </mxGeometry>
        </mxCell>
        <mxCell id="AHataomAO11KRiq0uJDD-65" value="0..1" style="edgeLabel;html=1;align=center;verticalAlign=middle;resizable=0;points=[];" parent="AHataomAO11KRiq0uJDD-64" vertex="1" connectable="0">
          <mxGeometry x="0.7237" relative="1" as="geometry">
            <mxPoint y="14" as="offset" />
          </mxGeometry>
        </mxCell>
        <mxCell id="-zn2SSIJuOPCWb8_9G0l-15" value="TimeBlock" style="swimlane;fontStyle=0;childLayout=stackLayout;horizontal=1;startSize=26;fillColor=none;horizontalStack=0;resizeParent=1;resizeParentMax=0;resizeLast=0;collapsible=1;marginBottom=0;" parent="WIyWlLk6GJQsqaUBKTNV-1" vertex="1">
          <mxGeometry x="1070" y="350" width="150" height="138" as="geometry">
            <mxRectangle x="240" y="218" width="80" height="30" as="alternateBounds" />
          </mxGeometry>
        </mxCell>
        <mxCell id="-zn2SSIJuOPCWb8_9G0l-16" value="Date startTime" style="text;strokeColor=none;fillColor=none;align=left;verticalAlign=top;spacingLeft=4;spacingRight=4;overflow=hidden;rotatable=0;points=[[0,0.5],[1,0.5]];portConstraint=eastwest;" parent="-zn2SSIJuOPCWb8_9G0l-15" vertex="1">
          <mxGeometry y="26" width="150" height="26" as="geometry" />
        </mxCell>
        <mxCell id="-zn2SSIJuOPCWb8_9G0l-17" value="Date endTime" style="text;strokeColor=none;fillColor=none;align=left;verticalAlign=top;spacingLeft=4;spacingRight=4;overflow=hidden;rotatable=0;points=[[0,0.5],[1,0.5]];portConstraint=eastwest;" parent="-zn2SSIJuOPCWb8_9G0l-15" vertex="1">
          <mxGeometry y="52" width="150" height="26" as="geometry" />
        </mxCell>
        <mxCell id="-zn2SSIJuOPCWb8_9G0l-18" value="Activity activity" style="text;strokeColor=none;fillColor=none;align=left;verticalAlign=top;spacingLeft=4;spacingRight=4;overflow=hidden;rotatable=0;points=[[0,0.5],[1,0.5]];portConstraint=eastwest;" parent="-zn2SSIJuOPCWb8_9G0l-15" vertex="1">
          <mxGeometry y="78" width="150" height="26" as="geometry" />
        </mxCell>
        <mxCell id="-zn2SSIJuOPCWb8_9G0l-19" value="Employee employee" style="text;strokeColor=none;fillColor=none;align=left;verticalAlign=top;spacingLeft=4;spacingRight=4;overflow=hidden;rotatable=0;points=[[0,0.5],[1,0.5]];portConstraint=eastwest;" parent="-zn2SSIJuOPCWb8_9G0l-15" vertex="1">
          <mxGeometry y="104" width="150" height="26" as="geometry" />
        </mxCell>
        <mxCell id="-zn2SSIJuOPCWb8_9G0l-21" value="" style="line;strokeWidth=1;fillColor=none;align=left;verticalAlign=middle;spacingTop=-1;spacingLeft=3;spacingRight=3;rotatable=0;labelPosition=right;points=[];portConstraint=eastwest;strokeColor=inherit;" parent="-zn2SSIJuOPCWb8_9G0l-15" vertex="1">
          <mxGeometry y="130" width="150" height="8" as="geometry" />
        </mxCell>
        <mxCell id="-zn2SSIJuOPCWb8_9G0l-24" value="0..*" style="endArrow=open;html=1;endSize=12;startArrow=diamondThin;startSize=14;startFill=0;align=left;verticalAlign=bottom;rounded=0;elbow=vertical;exitX=0.5;exitY=0;exitDx=0;exitDy=0;" parent="WIyWlLk6GJQsqaUBKTNV-1" source="-zn2SSIJuOPCWb8_9G0l-15" target="AHataomAO11KRiq0uJDD-9" edge="1">
          <mxGeometry x="-0.7554" y="-5" relative="1" as="geometry">
            <mxPoint x="850.6198347107438" y="410.0000000000001" as="sourcePoint" />
            <mxPoint x="866.2396694214876" y="302" as="targetPoint" />
            <mxPoint as="offset" />
          </mxGeometry>
        </mxCell>
        <mxCell id="-zn2SSIJuOPCWb8_9G0l-25" value="1" style="edgeLabel;html=1;align=center;verticalAlign=middle;resizable=0;points=[];" parent="-zn2SSIJuOPCWb8_9G0l-24" vertex="1" connectable="0">
          <mxGeometry x="0.7237" relative="1" as="geometry">
            <mxPoint y="14" as="offset" />
          </mxGeometry>
        </mxCell>
        <mxCell id="-zn2SSIJuOPCWb8_9G0l-26" value="0..*" style="endArrow=open;html=1;endSize=12;startArrow=diamondThin;startSize=14;startFill=0;align=left;verticalAlign=bottom;rounded=0;elbow=vertical;" parent="WIyWlLk6GJQsqaUBKTNV-1" source="-zn2SSIJuOPCWb8_9G0l-15" target="-zn2SSIJuOPCWb8_9G0l-51" edge="1">
          <mxGeometry x="-0.5592" y="-11" relative="1" as="geometry">
            <mxPoint x="1035" y="380" as="sourcePoint" />
            <mxPoint x="870.4200000000001" y="301.948" as="targetPoint" />
            <mxPoint as="offset" />
          </mxGeometry>
        </mxCell>
        <mxCell id="-zn2SSIJuOPCWb8_9G0l-27" value="1" style="edgeLabel;html=1;align=center;verticalAlign=middle;resizable=0;points=[];" parent="-zn2SSIJuOPCWb8_9G0l-26" vertex="1" connectable="0">
          <mxGeometry x="0.7237" relative="1" as="geometry">
            <mxPoint y="14" as="offset" />
          </mxGeometry>
        </mxCell>
        <mxCell id="-zn2SSIJuOPCWb8_9G0l-42" value="" style="endArrow=open;html=1;endSize=12;startArrow=diamondThin;startSize=14;startFill=1;align=left;verticalAlign=bottom;rounded=0;elbow=vertical;entryX=0.35;entryY=1.096;entryDx=0;entryDy=0;entryPerimeter=0;" parent="WIyWlLk6GJQsqaUBKTNV-1" source="AHataomAO11KRiq0uJDD-9" target="-zn2SSIJuOPCWb8_9G0l-5" edge="1">
          <mxGeometry x="-0.8556" y="-29" relative="1" as="geometry">
            <mxPoint x="730" y="215.41176470588232" as="sourcePoint" />
            <mxPoint x="884.4578313253012" y="140" as="targetPoint" />
            <mxPoint as="offset" />
          </mxGeometry>
        </mxCell>
        <mxCell id="-zn2SSIJuOPCWb8_9G0l-44" value="1" style="edgeLabel;html=1;align=center;verticalAlign=middle;resizable=0;points=[];rotation=0;" parent="-zn2SSIJuOPCWb8_9G0l-42" vertex="1" connectable="0">
          <mxGeometry x="0.8097" y="-2" relative="1" as="geometry">
            <mxPoint x="-20" y="4" as="offset" />
          </mxGeometry>
        </mxCell>
        <mxCell id="-zn2SSIJuOPCWb8_9G0l-45" value="0..*" style="edgeLabel;html=1;align=center;verticalAlign=middle;resizable=0;points=[];" parent="-zn2SSIJuOPCWb8_9G0l-42" vertex="1" connectable="0">
          <mxGeometry x="-0.7473" y="2" relative="1" as="geometry">
            <mxPoint x="-18" as="offset" />
          </mxGeometry>
        </mxCell>
        <mxCell id="-zn2SSIJuOPCWb8_9G0l-51" value="ProjectActivity" style="swimlane;fontStyle=0;childLayout=stackLayout;horizontal=1;startSize=26;fillColor=none;horizontalStack=0;resizeParent=1;resizeParentMax=0;resizeLast=0;collapsible=1;marginBottom=0;" parent="WIyWlLk6GJQsqaUBKTNV-1" vertex="1">
          <mxGeometry x="760" y="512" width="250" height="190" as="geometry">
            <mxRectangle x="240" y="218" width="80" height="30" as="alternateBounds" />
          </mxGeometry>
        </mxCell>
        <mxCell id="-zn2SSIJuOPCWb8_9G0l-53" value="Date startWeek" style="text;strokeColor=none;fillColor=none;align=left;verticalAlign=top;spacingLeft=4;spacingRight=4;overflow=hidden;rotatable=0;points=[[0,0.5],[1,0.5]];portConstraint=eastwest;" parent="-zn2SSIJuOPCWb8_9G0l-51" vertex="1">
          <mxGeometry y="26" width="250" height="26" as="geometry" />
        </mxCell>
        <mxCell id="-zn2SSIJuOPCWb8_9G0l-54" value="Date endWeek" style="text;strokeColor=none;fillColor=none;align=left;verticalAlign=top;spacingLeft=4;spacingRight=4;overflow=hidden;rotatable=0;points=[[0,0.5],[1,0.5]];portConstraint=eastwest;" parent="-zn2SSIJuOPCWb8_9G0l-51" vertex="1">
          <mxGeometry y="52" width="250" height="26" as="geometry" />
        </mxCell>
        <mxCell id="AHataomAO11KRiq0uJDD-56" value="Date expectedDuration" style="text;strokeColor=none;fillColor=none;align=left;verticalAlign=top;spacingLeft=4;spacingRight=4;overflow=hidden;rotatable=0;points=[[0,0.5],[1,0.5]];portConstraint=eastwest;" parent="-zn2SSIJuOPCWb8_9G0l-51" vertex="1">
          <mxGeometry y="78" width="250" height="26" as="geometry" />
        </mxCell>
        <mxCell id="-zn2SSIJuOPCWb8_9G0l-57" value="" style="line;strokeWidth=1;fillColor=none;align=left;verticalAlign=middle;spacingTop=-1;spacingLeft=3;spacingRight=3;rotatable=0;labelPosition=right;points=[];portConstraint=eastwest;strokeColor=inherit;" parent="-zn2SSIJuOPCWb8_9G0l-51" vertex="1">
          <mxGeometry y="104" width="250" height="8" as="geometry" />
        </mxCell>
        <mxCell id="-zn2SSIJuOPCWb8_9G0l-50" value="addTimeBlock(TimeBlock): void" style="text;strokeColor=none;fillColor=none;align=left;verticalAlign=top;spacingLeft=4;spacingRight=4;overflow=hidden;rotatable=0;points=[[0,0.5],[1,0.5]];portConstraint=eastwest;" parent="-zn2SSIJuOPCWb8_9G0l-51" vertex="1">
          <mxGeometry y="112" width="250" height="26" as="geometry" />
        </mxCell>
        <mxCell id="-zn2SSIJuOPCWb8_9G0l-28" value="calculateCompletionTime(): Time" style="text;strokeColor=none;fillColor=none;align=left;verticalAlign=top;spacingLeft=4;spacingRight=4;overflow=hidden;rotatable=0;points=[[0,0.5],[1,0.5]];portConstraint=eastwest;" parent="-zn2SSIJuOPCWb8_9G0l-51" vertex="1">
          <mxGeometry y="138" width="250" height="26" as="geometry" />
        </mxCell>
        <mxCell id="-zn2SSIJuOPCWb8_9G0l-48" value="removeTimeBlock(TimeBlock): void" style="text;strokeColor=none;fillColor=none;align=left;verticalAlign=top;spacingLeft=4;spacingRight=4;overflow=hidden;rotatable=0;points=[[0,0.5],[1,0.5]];portConstraint=eastwest;" parent="-zn2SSIJuOPCWb8_9G0l-51" vertex="1">
          <mxGeometry y="164" width="250" height="26" as="geometry" />
        </mxCell>
        <mxCell id="-zn2SSIJuOPCWb8_9G0l-63" value="ReservedActivity" style="swimlane;fontStyle=0;childLayout=stackLayout;horizontal=1;startSize=26;fillColor=none;horizontalStack=0;resizeParent=1;resizeParentMax=0;resizeLast=0;collapsible=1;marginBottom=0;" parent="WIyWlLk6GJQsqaUBKTNV-1" vertex="1">
          <mxGeometry x="430" y="610" width="250" height="86" as="geometry">
            <mxRectangle x="240" y="218" width="80" height="30" as="alternateBounds" />
          </mxGeometry>
        </mxCell>
        <mxCell id="-zn2SSIJuOPCWb8_9G0l-65" value="Date startDay" style="text;strokeColor=none;fillColor=none;align=left;verticalAlign=top;spacingLeft=4;spacingRight=4;overflow=hidden;rotatable=0;points=[[0,0.5],[1,0.5]];portConstraint=eastwest;" parent="-zn2SSIJuOPCWb8_9G0l-63" vertex="1">
          <mxGeometry y="26" width="250" height="26" as="geometry" />
        </mxCell>
        <mxCell id="-zn2SSIJuOPCWb8_9G0l-66" value="Date endDay" style="text;strokeColor=none;fillColor=none;align=left;verticalAlign=top;spacingLeft=4;spacingRight=4;overflow=hidden;rotatable=0;points=[[0,0.5],[1,0.5]];portConstraint=eastwest;" parent="-zn2SSIJuOPCWb8_9G0l-63" vertex="1">
          <mxGeometry y="52" width="250" height="26" as="geometry" />
        </mxCell>
        <mxCell id="-zn2SSIJuOPCWb8_9G0l-69" value="" style="line;strokeWidth=1;fillColor=none;align=left;verticalAlign=middle;spacingTop=-1;spacingLeft=3;spacingRight=3;rotatable=0;labelPosition=right;points=[];portConstraint=eastwest;strokeColor=inherit;" parent="-zn2SSIJuOPCWb8_9G0l-63" vertex="1">
          <mxGeometry y="78" width="250" height="8" as="geometry" />
        </mxCell>
        <mxCell id="-zn2SSIJuOPCWb8_9G0l-75" value="" style="endArrow=block;endSize=16;endFill=0;html=1;rounded=0;" parent="WIyWlLk6GJQsqaUBKTNV-1" source="-zn2SSIJuOPCWb8_9G0l-63" target="AHataomAO11KRiq0uJDD-15" edge="1">
          <mxGeometry width="160" relative="1" as="geometry">
            <mxPoint x="920" y="580" as="sourcePoint" />
            <mxPoint x="760" y="580" as="targetPoint" />
          </mxGeometry>
        </mxCell>
        <mxCell id="-zn2SSIJuOPCWb8_9G0l-76" value="" style="endArrow=block;endSize=16;endFill=0;html=1;rounded=0;movable=1;resizable=1;rotatable=1;deletable=1;editable=1;locked=0;connectable=1;" parent="WIyWlLk6GJQsqaUBKTNV-1" source="-zn2SSIJuOPCWb8_9G0l-51" target="AHataomAO11KRiq0uJDD-15" edge="1">
          <mxGeometry width="160" relative="1" as="geometry">
            <mxPoint x="768.9674418604648" y="626" as="sourcePoint" />
            <mxPoint x="700.7999999999997" y="690" as="targetPoint" />
            <Array as="points" />
          </mxGeometry>
        </mxCell>
      </root>
    </mxGraphModel>
  </diagram>
</mxfile>
